# xmcd
#
# Track frame offsets:
#	150
#	18395
#	46810
#	78792
#	106365
#	127925
#	153695
#	170950
#	196470
#	220795
#	245845
#	266537
#	292892
#	321697
#
# Disc length: 4585 seconds
#
# Revision: 10
# Processed by: cddbd v1.5.2PL0 Copyright (c) Steve Scherf et al.
# Submitted via: audiograbber 1.83.01
#
DISCID=cc11e70e
DTITLE=John Lee Hooker - From Clarksdale to Heaven: Remembering John Lee Hooker
DYEAR=2002
DGENRE=Blues
TTITLE0=Zakiya Hooker, Johnnie Johnson, Bobby Murray   - I Want To Hug You
TTITLE1=Jack Bruce and Gary Moore - I'm In The Mood
TTITLE2=LLC Vince Converse, Leo Lyons, Ric Lee  - Bad Like Jesse James
TTITLE3=Jeff Beck  - Will The Circle Be Unbroken
TTITLE4=Gary Brooker and Andy Fairweather-Low - Baby Lee
TTITLE5=T.S. McPhee and Dick Heckstall-Smith - Ground Hog Blues
TTITLE6=Mick Tayor and Max Middleton   - This Is Hip
TTITLE7=Peter Green Splinter Group - Crawlin' King Snake
TTITLE8=T.S. McPhee, Dick Heckstall-Smith, Clem Clemson - I'm Leaving
TTITLE9=Gary Brooker and Andy Fairweather-Low - Little Wheel
TTITLE10=Greggs Eggs - The Business
TTITLE11=Jeff Beck - Hobo Blues
TTITLE12=Gary Moore and Jack Bruce  - Serve Me Right To Suffer
TTITLE13=John Lee Hooker, Booker T, Randy California  - Red House
EXTD=
EXTT0=
EXTT1=
EXTT2=
EXTT3=
EXTT4=
EXTT5=
EXTT6=
EXTT7=
EXTT8=
EXTT9=
EXTT10=
EXTT11=
EXTT12=
EXTT13=
PLAYORDER=
